<svg width="118" height="46" viewBox="0 0 118 46" fill="none" xmlns="http://www.w3.org/2000/svg">
<path d="M47.4451 0L31.983 34C31.983 34 87.1563 33.5629 87.3164 33.5643C93.6618 33.6184 101.782 31.9488 106.432 20.3856C111.106 8.76281 115.446 0 101.914 0" fill="url(#paint0_linear_1191_2329)"/>
<path d="M44.7424 0.000687974C44.7424 0.000687974 19.5269 0.00137768 15.6444 0.000687974C11.7619 -1.72822e-06 8.78819 2.10658 8.00297 4.48312C7.21775 6.85965 0.57359 27.5876 0.219363 28.7758C-0.134865 29.9641 -0.769249 33.8012 4.87995 33.9492C10.5291 34.0972 39.5831 33.8749 39.5831 33.8749C40.2508 33.8633 40.9069 33.7002 41.5001 33.3982C42.0934 33.0963 42.6079 32.6636 43.0037 32.134C44.6863 30.2224 59.0727 8.96305 56.0159 4.46836C55.1746 2.68599 52.202 -0.0497638 50.8559 0.000687974C49.5098 0.0511397 44.7424 0.000687974 44.7424 0.000687974Z" fill="url(#paint1_linear_1191_2329)"/>
<path d="M7.48264 26.1619C8.82664 26.5819 10.5626 26.8899 12.4386 26.8899C15.9946 26.8899 19.4666 25.9939 22.0146 23.9499C25.3746 21.2619 27.5026 16.3339 26.9426 12.1059C26.2426 6.84186 22.2666 5.91786 18.1226 6.00186C16.4986 6.02986 14.3986 6.50586 13.0266 7.00986C10.7306 13.9259 9.30264 19.4419 7.48264 26.1619ZM14.0906 21.8779C15.1546 18.5179 16.1346 14.7939 17.2546 11.4619C17.6466 11.3219 18.3186 11.2099 18.7946 11.2379C19.8306 11.3219 20.9786 11.9099 20.9786 13.9259C20.9786 17.9299 17.9826 21.9619 14.0906 21.8779ZM36.7582 6.50586C34.7422 6.44986 32.5582 6.39386 30.5422 6.78586C28.2462 13.7859 26.7062 20.0299 25.1942 26.7219C26.9582 26.5259 28.8902 26.5539 30.6822 26.7219C32.6702 19.7779 34.4342 13.4779 36.7582 6.50586ZM44.4195 6.72986C42.8235 6.61786 40.2475 6.64586 38.5115 6.84186C38.0355 12.3299 37.8955 20.8139 37.9795 26.7499C40.3315 26.4699 42.1515 26.5539 44.0275 26.6379C46.9115 21.0379 51.0275 13.1139 55.4235 6.53386C53.2675 6.44986 51.1955 6.42186 49.0115 6.64586C46.8275 10.3979 44.6435 14.6259 42.9075 18.6299C43.1875 15.2139 43.7475 10.2579 44.4195 6.72986ZM51.6343 26.5819C56.3103 27.4499 63.3103 27.2259 66.3343 23.1379C66.6703 22.6339 66.9503 21.9339 67.0343 21.3459C67.2863 19.6379 65.7743 18.7419 64.5703 17.8739C63.7023 17.2299 61.1543 16.4459 61.1543 15.1299C61.1263 13.9259 62.0783 12.9739 63.0863 12.4699C64.3463 11.8539 67.1183 11.9099 68.4063 12.2179L69.8623 6.50586C67.9303 6.30986 66.2783 6.22586 64.3463 6.39386C61.0423 6.67386 56.7863 7.90586 55.1623 10.8459C54.6583 11.6859 54.2943 12.8899 54.4063 13.9259C54.5743 16.1099 55.8063 17.3139 57.9063 18.4899C60.9583 20.2259 60.0623 22.0179 56.9543 22.2419C55.6383 22.3259 53.6223 22.1859 52.3903 21.9339L51.6343 26.5819ZM76.147 15.3539C76.455 14.3179 76.791 13.2259 77.127 12.2179C79.115 12.0219 82.391 11.9379 84.239 12.0219C84.939 10.1739 85.695 8.21386 86.423 6.39386C82.587 6.28186 76.987 6.33786 73.123 6.92586C70.855 13.8699 69.427 20.1699 67.803 26.7779C70.435 26.7779 75.335 26.8619 79.031 26.6379C79.927 24.9299 80.627 23.3339 81.299 21.5979C79.227 21.8499 75.923 21.9619 74.103 21.9619C74.411 20.9819 74.719 20.0859 74.999 19.1059C76.623 18.9939 79.843 18.9659 81.495 19.0779C81.999 17.6499 82.335 16.5859 82.727 15.1579C81.047 15.1019 78.023 15.0739 76.147 15.3539ZM91.4868 15.3539C91.7948 14.3179 92.1308 13.2259 92.4668 12.2179C94.4548 12.0219 97.7308 11.9379 99.5788 12.0219C100.279 10.1739 101.035 8.21386 101.763 6.39386C97.9268 6.28186 92.3268 6.33786 88.4628 6.92586C86.1948 13.8699 84.7668 20.1699 83.1428 26.7779C85.7748 26.7779 90.6748 26.8619 94.3708 26.6379C95.2668 24.9299 95.9668 23.3339 96.6388 21.5979C94.5668 21.8499 91.2628 21.9619 89.4428 21.9619C89.7508 20.9819 90.0588 20.0859 90.3388 19.1059C91.9628 18.9939 95.1828 18.9659 96.8348 19.0779C97.3388 17.6499 97.6748 16.5859 98.0668 15.1579C96.3868 15.1019 93.3628 15.0739 91.4868 15.3539Z" fill="white"/>
<defs>
<linearGradient id="paint0_linear_1191_2329" x1="54.9999" y1="34" x2="108.5" y2="2.5" gradientUnits="userSpaceOnUse">
<stop stop-color="#00B4D8"/>
<stop offset="1" stop-color="#48CAE4"/>
</linearGradient>
<linearGradient id="paint1_linear_1191_2329" x1="-3" y1="35.5" x2="60" y2="-5.5" gradientUnits="userSpaceOnUse">
<stop stop-color="#03045E"/>
<stop offset="1" stop-color="#023E8A"/>
</linearGradient>
</defs>
</svg>
